<svg width="80" height="106" viewBox="0 0 80 106" fill="none" xmlns="http://www.w3.org/2000/svg">
<path fill-rule="evenodd" clip-rule="evenodd" d="M13.6818 15.1618C20.9496 8.43235 29.6627 4.03329 37.2513 4.87947C38.6235 5.03248 40.1987 4.41089 40.3517 3.03869C40.5047 1.66648 39.8312 1.0902 38.4589 0.937193C29.1231 -0.103825 19.4808 3.54871 11.3942 11.0363C3.22511 18.6003 -2.39373 31.6418 2.15383 44.0985C5.9113 54.391 13.2313 58.3354 21.6795 60.6377C18.7791 70.0384 21.3733 83.1644 29.709 91.6034C34.6016 96.5567 52.4819 106.112 67.626 94.1829C68.8043 93.2547 66.9275 91.196 65.6563 91.7351C59.4214 94.3789 44.3553 98.6987 32.4707 86.6668C25.5642 79.6746 23.9372 69.7885 26.6122 61.6224C28.2286 62.4863 29.2272 62.5385 32.2075 62.7901C44.0662 62.9798 56.3068 58.4949 62.3738 52.7573C65.3153 49.9755 66.2643 46.0678 66.5401 42.9925C66.8211 39.8588 65.6006 37.0289 63.3002 35.053C58.7783 31.1688 50.8095 30.9608 42.3487 35.5563C34.6421 39.7422 26.5633 47.0183 22.5764 55.6816C15.1646 53.7987 9.39242 50.9101 6.25288 42.3103C3.27137 34.1433 6.49649 21.8149 13.6818 15.1618ZM27.5266 56.7651C31.1493 49.6111 38.3206 43.4341 44.7352 39.95C52.2498 35.8684 57.1881 37.1075 59.494 39.0882C60.6075 40.0446 61.1441 41.3122 61.0118 42.7882C60.8742 44.3226 59.9778 46.352 57.6517 48.5517C52.7359 53.2006 42.4108 57.1493 31.5492 56.9756C30.5627 56.9598 28.4967 56.8543 27.5266 56.7651ZM61.4778 85.2549C61.0734 86.5751 61.6236 87.5779 62.9437 87.9823L74.0267 92.0677L68.2116 102.13C67.4969 103.311 67.8722 104.463 69.0535 105.178C70.2348 105.893 71.9124 105.044 72.6271 103.863L79.2327 92.4455C79.6317 91.7861 79.7042 90.9796 79.4293 90.2597C79.1544 89.5397 78.5628 88.9868 77.826 88.761L66.1041 84.9963C64.7839 84.5919 61.8822 83.9348 61.4778 85.2549Z" fill="#FFCA0E"/>
</svg>
