<svg width="46" height="92" viewBox="0 0 46 92" fill="none" xmlns="http://www.w3.org/2000/svg">
<path fill-rule="evenodd" clip-rule="evenodd" d="M-0.762711 2.14407C-0.762711 2.77331 -0.934321 3.28814 -1.14407 3.28814C-1.35381 3.28814 -1.52542 3.80297 -1.52542 4.4322C-1.52542 5.06144 -1.69703 5.57627 -1.90678 5.57627C-2.11652 5.57627 -2.28813 6.0911 -2.28813 6.72034C-2.28813 7.34958 -2.45974 7.86441 -2.66949 7.86441C-2.87924 7.86441 -3.05085 8.37924 -3.05085 9.00847C-3.05085 9.63771 -3.22246 10.1525 -3.4322 10.1525C-3.64195 10.1525 -3.81356 10.6674 -3.81356 11.2966C-3.81356 11.9258 -3.98517 12.4407 -4.19491 12.4407C-4.40466 12.4407 -4.57627 12.9555 -4.57627 13.5847C-4.57627 14.214 -4.74788 14.7288 -4.95763 14.7288C-5.16737 14.7288 -5.33898 15.072 -5.33898 15.4915C-5.33898 15.911 -5.51059 16.2542 -5.72034 16.2542C-5.93008 16.2542 -6.10169 16.7691 -6.10169 17.3983C-6.10169 18.0275 -6.2733 18.5424 -6.48305 18.5424C-6.6928 18.5424 -6.86441 19.0572 -6.86441 19.6864C-6.86441 20.3157 -7.03602 20.8305 -7.24576 20.8305C-7.45551 20.8305 -7.62712 21.1737 -7.62712 21.5932C-7.62712 22.5958 -8.81123 22.5958 -9.5339 21.5932C-9.83631 21.1737 -10.3511 20.8305 -10.678 20.8305C-11.0048 20.8305 -11.5196 20.4873 -11.822 20.0678C-12.1244 19.6483 -12.6393 19.3051 -12.9661 19.3051C-13.2929 19.3051 -13.8078 18.9619 -14.1102 18.5424C-14.4126 18.1229 -14.9274 17.7797 -15.2542 17.7797C-15.5811 17.7797 -16.0959 17.4364 -16.3983 17.0169C-16.7007 16.5975 -17.2156 16.2542 -17.5424 16.2542C-17.8692 16.2542 -18.384 15.911 -18.6864 15.4915C-18.9889 15.072 -19.5037 14.7288 -19.8305 14.7288C-20.1573 14.7288 -20.6722 14.3856 -20.9746 13.9661C-21.277 13.5466 -21.7918 13.2034 -22.1186 13.2034C-22.4455 13.2034 -22.9603 12.8602 -23.2627 12.4407C-23.5651 12.0212 -24.08 11.678 -24.4068 11.678C-24.7336 11.678 -25.2484 11.3347 -25.5508 10.9153C-25.8533 10.4958 -26.3917 10.1525 -26.7472 10.1525C-27.103 10.1525 -27.4706 9.93784 -27.5644 9.67585C-27.6632 9.3986 -27.876 9.34064 -28.0728 9.53742C-28.2695 9.73419 -28.2116 9.94699 -27.9343 10.0458C-27.6719 10.1396 -27.4576 10.7166 -27.4576 11.3283C-27.4576 11.9403 -27.286 12.4407 -27.0763 12.4407C-26.8665 12.4407 -26.6949 12.9555 -26.6949 13.5847C-26.6949 14.214 -26.5233 14.7288 -26.3136 14.7288C-26.1038 14.7288 -25.9322 15.2436 -25.9322 15.8729C-25.9322 16.5021 -25.7606 17.0169 -25.5508 17.0169C-25.3411 17.0169 -25.1695 17.5318 -25.1695 18.161C-25.1695 18.7903 -24.9979 19.3051 -24.7881 19.3051C-24.5784 19.3051 -24.4068 19.8199 -24.4068 20.4492C-24.4068 21.0784 -24.2352 21.5932 -24.0254 21.5932C-23.8157 21.5932 -23.6441 22.1081 -23.6441 22.7373C-23.6441 23.3665 -23.4725 23.8814 -23.2627 23.8814C-23.053 23.8814 -22.8814 24.3962 -22.8814 25.0254C-22.8814 25.6547 -22.7097 26.1695 -22.5 26.1695C-22.2903 26.1695 -22.1186 26.6843 -22.1186 27.3136C-22.1186 27.9428 -21.947 28.4576 -21.7373 28.4576C-21.5275 28.4576 -21.3559 28.9725 -21.3559 29.6017C-21.3559 30.2309 -21.1843 30.7458 -20.9746 30.7458C-20.7648 30.7458 -20.5932 30.9174 -20.5932 31.1271C-20.5932 31.3735 -24.9151 31.5085 -32.7966 31.5085C-39.5085 31.5085 -45 31.6 -45 31.7117C-45 32.1423 -42.3305 34.5593 -41.8553 34.5593C-41.58 34.5593 -41.1075 34.9025 -40.8051 35.322C-40.5027 35.7415 -40.0187 36.0847 -39.7297 36.0847C-39.441 36.0847 -38.7233 36.5996 -38.1356 37.2288C-37.5479 37.8581 -36.8302 38.3729 -36.5415 38.3729C-36.2525 38.3729 -35.7685 38.7161 -35.4661 39.1356C-35.1637 39.5551 -34.6489 39.8983 -34.322 39.8983C-33.9952 39.8983 -33.4804 40.2415 -33.178 40.661C-32.8756 41.0805 -32.3916 41.4237 -32.1025 41.4237C-31.8139 41.4237 -31.0961 41.9386 -30.5085 42.5678C-29.9208 43.197 -29.2031 43.7119 -28.9144 43.7119C-28.6253 43.7119 -28.1414 44.0551 -27.839 44.4746C-27.5366 44.8941 -26.984 45.2373 -26.6106 45.2373C-26.1866 45.2373 -25.9322 45.5229 -25.9322 46C-25.9322 46.4771 -26.1866 46.7627 -26.6106 46.7627C-26.984 46.7627 -27.5366 47.1059 -27.839 47.5254C-28.1414 47.9449 -28.6253 48.2881 -28.9144 48.2881C-29.2031 48.2881 -29.9208 48.803 -30.5085 49.4322C-31.0961 50.0614 -31.8139 50.5763 -32.1025 50.5763C-32.3916 50.5763 -32.8756 50.9195 -33.178 51.339C-33.4804 51.7585 -33.9952 52.1017 -34.322 52.1017C-34.6489 52.1017 -35.1637 52.4449 -35.4661 52.8644C-35.7685 53.2839 -36.2525 53.6271 -36.5415 53.6271C-36.8302 53.6271 -37.5479 54.142 -38.1356 54.7712C-38.7233 55.4004 -39.441 55.9153 -39.7297 55.9153C-40.0187 55.9153 -40.5027 56.2585 -40.8051 56.678C-41.1075 57.0975 -41.58 57.4407 -41.8553 57.4407C-42.3305 57.4407 -45 59.8577 -45 60.2883C-45 60.4 -39.5085 60.4915 -32.7966 60.4915C-24.9151 60.4915 -20.5932 60.6265 -20.5932 60.8729C-20.5932 61.0826 -20.7648 61.2542 -20.9746 61.2542C-21.1843 61.2542 -21.3559 61.7691 -21.3559 62.3983C-21.3559 63.0275 -21.5275 63.5424 -21.7373 63.5424C-21.947 63.5424 -22.1186 64.0572 -22.1186 64.6864C-22.1186 65.3157 -22.2903 65.8305 -22.5 65.8305C-22.7097 65.8305 -22.8814 66.3453 -22.8814 66.9746C-22.8814 67.6038 -23.053 68.1186 -23.2627 68.1186C-23.4725 68.1186 -23.6441 68.6335 -23.6441 69.2627C-23.6441 69.892 -23.8157 70.4068 -24.0254 70.4068C-24.2352 70.4068 -24.4068 70.9216 -24.4068 71.5508C-24.4068 72.1801 -24.5784 72.6949 -24.7881 72.6949C-24.9979 72.6949 -25.1695 73.2097 -25.1695 73.839C-25.1695 74.4682 -25.3411 74.9831 -25.5508 74.9831C-25.7606 74.9831 -25.9322 75.4979 -25.9322 76.1271C-25.9322 76.7564 -26.1038 77.2712 -26.3136 77.2712C-26.5233 77.2712 -26.6949 77.786 -26.6949 78.4153C-26.6949 79.0445 -26.8665 79.5593 -27.0763 79.5593C-27.286 79.5593 -27.4576 80.06 -27.4576 80.6717C-27.4576 81.2834 -27.6719 81.8604 -27.9343 81.9542C-28.2116 82.053 -28.2695 82.2658 -28.0728 82.4626C-27.876 82.6594 -27.6632 82.6014 -27.5644 82.3242C-27.4706 82.0618 -27.103 81.8475 -26.7472 81.8475C-26.3917 81.8475 -25.8533 81.5042 -25.5508 81.0847C-25.2484 80.6653 -24.7336 80.322 -24.4068 80.322C-24.08 80.322 -23.5651 79.9788 -23.2627 79.5593C-22.9603 79.1398 -22.4455 78.7966 -22.1186 78.7966C-21.7918 78.7966 -21.277 78.4534 -20.9746 78.0339C-20.6722 77.6144 -20.1573 77.2712 -19.8305 77.2712C-19.5037 77.2712 -18.9889 76.928 -18.6864 76.5085C-18.384 76.089 -17.8692 75.7458 -17.5424 75.7458C-17.2156 75.7458 -16.7007 75.4025 -16.3983 74.9831C-16.0959 74.5636 -15.5811 74.2203 -15.2542 74.2203C-14.9274 74.2203 -14.4126 73.8771 -14.1102 73.4576C-13.8078 73.0381 -13.2929 72.6949 -12.9661 72.6949C-12.6393 72.6949 -12.1244 72.3517 -11.822 71.9322C-11.5196 71.5127 -11.0048 71.1695 -10.678 71.1695C-10.3511 71.1695 -9.83631 70.8263 -9.5339 70.4068C-9.23148 69.9873 -8.6789 69.6441 -8.30555 69.6441C-7.88148 69.6441 -7.62712 69.9297 -7.62712 70.4068C-7.62712 70.8263 -7.45551 71.1695 -7.24576 71.1695C-7.03602 71.1695 -6.86441 71.6843 -6.86441 72.3136C-6.86441 72.9428 -6.6928 73.4576 -6.48305 73.4576C-6.2733 73.4576 -6.10169 73.9725 -6.10169 74.6017C-6.10169 75.2309 -5.93008 75.7458 -5.72034 75.7458C-5.51059 75.7458 -5.33898 76.089 -5.33898 76.5085C-5.33898 76.928 -5.16737 77.2712 -4.95763 77.2712C-4.74788 77.2712 -4.57627 77.786 -4.57627 78.4153C-4.57627 79.0445 -4.40466 79.5593 -4.19491 79.5593C-3.98517 79.5593 -3.81356 80.0742 -3.81356 80.7034C-3.81356 81.3326 -3.64195 81.8475 -3.4322 81.8475C-3.22246 81.8475 -3.05085 82.3623 -3.05085 82.9915C-3.05085 83.6208 -2.87924 84.1356 -2.66949 84.1356C-2.45974 84.1356 -2.28813 84.6504 -2.28813 85.2797C-2.28813 85.9089 -2.11652 86.4237 -1.90678 86.4237C-1.69703 86.4237 -1.52542 86.9386 -1.52542 87.5678C-1.52542 88.197 -1.35381 88.7119 -1.14407 88.7119C-0.934321 88.7119 -0.762711 89.2267 -0.762711 89.8559C-0.762711 90.7456 -0.593389 91 1.07288e-06 91C0.593391 91 0.762713 90.7456 0.762713 89.8559C0.762713 89.2267 0.934323 88.7119 1.14407 88.7119C1.35381 88.7119 1.52542 88.197 1.52542 87.5678C1.52542 86.9386 1.69704 86.4237 1.90678 86.4237C2.11653 86.4237 2.28814 85.9089 2.28814 85.2797C2.28814 84.6504 2.45975 84.1356 2.66949 84.1356C2.87924 84.1356 3.05085 83.6208 3.05085 82.9915C3.05085 82.3623 3.22246 81.8475 3.4322 81.8475C3.64195 81.8475 3.81356 81.3326 3.81356 80.7034C3.81356 80.0742 3.98517 79.5593 4.19492 79.5593C4.40466 79.5593 4.57627 79.0445 4.57627 78.4153C4.57627 77.786 4.74788 77.2712 4.95763 77.2712C5.16737 77.2712 5.33898 76.928 5.33898 76.5085C5.33898 76.089 5.51059 75.7458 5.72034 75.7458C5.93009 75.7458 6.1017 75.2309 6.1017 74.6017C6.1017 73.9725 6.27331 73.4576 6.48305 73.4576C6.6928 73.4576 6.86441 72.9428 6.86441 72.3136C6.86441 71.6843 7.03602 71.1695 7.24576 71.1695C7.45551 71.1695 7.62712 70.8263 7.62712 70.4068C7.62712 69.9297 7.88149 69.6441 8.30555 69.6441C8.6789 69.6441 9.23148 69.9873 9.5339 70.4068C9.83631 70.8263 10.3511 71.1695 10.678 71.1695C11.0048 71.1695 11.5196 71.5127 11.822 71.9322C12.1245 72.3517 12.6393 72.6949 12.9661 72.6949C13.2929 72.6949 13.8078 73.0381 14.1102 73.4576C14.4126 73.8771 14.9274 74.2203 15.2542 74.2203C15.5811 74.2203 16.0959 74.5636 16.3983 74.9831C16.7007 75.4025 17.2156 75.7458 17.5424 75.7458C17.8692 75.7458 18.384 76.089 18.6864 76.5085C18.9889 76.928 19.5037 77.2712 19.8305 77.2712C20.1573 77.2712 20.6722 77.6144 20.9746 78.0339C21.277 78.4534 21.7918 78.7966 22.1186 78.7966C22.4455 78.7966 22.9603 79.1398 23.2627 79.5593C23.5651 79.9788 24.08 80.322 24.4068 80.322C24.7336 80.322 25.2484 80.6653 25.5508 81.0847C25.8533 81.5042 26.3917 81.8475 26.7472 81.8475C27.103 81.8475 27.4706 82.0618 27.5644 82.3242C27.6632 82.6014 27.876 82.6594 28.0728 82.4626C28.2695 82.2658 28.2116 82.053 27.9343 81.9542C27.6723 81.8604 27.4576 81.2834 27.4576 80.6717C27.4576 80.06 27.286 79.5593 27.0763 79.5593C26.8665 79.5593 26.6949 79.0445 26.6949 78.4153C26.6949 77.786 26.5233 77.2712 26.3136 77.2712C26.1038 77.2712 25.9322 76.7564 25.9322 76.1271C25.9322 75.4979 25.7606 74.9831 25.5508 74.9831C25.3411 74.9831 25.1695 74.4682 25.1695 73.839C25.1695 73.2097 24.9979 72.6949 24.7881 72.6949C24.5784 72.6949 24.4068 72.1801 24.4068 71.5508C24.4068 70.9216 24.2352 70.4068 24.0254 70.4068C23.8157 70.4068 23.6441 69.892 23.6441 69.2627C23.6441 68.6335 23.4725 68.1186 23.2627 68.1186C23.053 68.1186 22.8814 67.6038 22.8814 66.9746C22.8814 66.3453 22.7097 65.8305 22.5 65.8305C22.2903 65.8305 22.1186 65.3157 22.1186 64.6864C22.1186 64.0572 21.947 63.5424 21.7373 63.5424C21.5275 63.5424 21.3559 63.0275 21.3559 62.3983C21.3559 61.7691 21.1843 61.2542 20.9746 61.2542C20.7648 61.2542 20.5932 61.0826 20.5932 60.8729C20.5932 60.6265 24.9151 60.4915 32.7966 60.4915C39.5085 60.4915 45 60.4 45 60.2883C45 59.8577 42.3305 57.4407 41.8553 57.4407C41.58 57.4407 41.1075 57.0975 40.8051 56.678C40.5027 56.2585 40.0187 55.9153 39.7297 55.9153C39.441 55.9153 38.7233 55.4004 38.1356 54.7712C37.5479 54.142 36.8302 53.6271 36.5415 53.6271C36.2525 53.6271 35.7685 53.2839 35.4661 52.8644C35.1637 52.4449 34.6489 52.1017 34.322 52.1017C33.9952 52.1017 33.4804 51.7585 33.178 51.339C32.8756 50.9195 32.3916 50.5763 32.1025 50.5763C31.8139 50.5763 31.0961 50.0614 30.5085 49.4322C29.9208 48.803 29.2031 48.2881 28.9144 48.2881C28.6253 48.2881 28.1414 47.9449 27.839 47.5254C27.5366 47.1059 26.984 46.7627 26.6106 46.7627C26.1866 46.7627 25.9322 46.4771 25.9322 46C25.9322 45.5229 26.1866 45.2373 26.6106 45.2373C26.984 45.2373 27.5366 44.8941 27.839 44.4746C28.1414 44.0551 28.6253 43.7119 28.9144 43.7119C29.2031 43.7119 29.9208 43.197 30.5085 42.5678C31.0961 41.9386 31.8139 41.4237 32.1025 41.4237C32.3916 41.4237 32.8756 41.0805 33.178 40.661C33.4804 40.2415 33.9952 39.8983 34.322 39.8983C34.6489 39.8983 35.1637 39.5551 35.4661 39.1356C35.7685 38.7161 36.2525 38.3729 36.5415 38.3729C36.8302 38.3729 37.5479 37.8581 38.1356 37.2288C38.7233 36.5996 39.441 36.0847 39.7297 36.0847C40.0187 36.0847 40.5027 35.7415 40.8051 35.322C41.1075 34.9025 41.58 34.5593 41.8553 34.5593C42.3305 34.5593 45 32.1423 45 31.7117C45 31.6 39.5085 31.5085 32.7966 31.5085C24.9151 31.5085 20.5932 31.3735 20.5932 31.1271C20.5932 30.9174 20.7648 30.7458 20.9746 30.7458C21.1843 30.7458 21.3559 30.2309 21.3559 29.6017C21.3559 28.9725 21.5275 28.4576 21.7373 28.4576C21.947 28.4576 22.1186 27.9428 22.1186 27.3136C22.1186 26.6843 22.2903 26.1695 22.5 26.1695C22.7097 26.1695 22.8814 25.6547 22.8814 25.0254C22.8814 24.3962 23.053 23.8814 23.2627 23.8814C23.4725 23.8814 23.6441 23.3665 23.6441 22.7373C23.6441 22.1081 23.8157 21.5932 24.0254 21.5932C24.2352 21.5932 24.4068 21.0784 24.4068 20.4492C24.4068 19.8199 24.5784 19.3051 24.7881 19.3051C24.9979 19.3051 25.1695 18.7903 25.1695 18.161C25.1695 17.5318 25.3411 17.0169 25.5508 17.0169C25.7606 17.0169 25.9322 16.5021 25.9322 15.8729C25.9322 15.2436 26.1038 14.7288 26.3136 14.7288C26.5233 14.7288 26.6949 14.214 26.6949 13.5847C26.6949 12.9555 26.8665 12.4407 27.0763 12.4407C27.286 12.4407 27.4576 11.9403 27.4576 11.3283C27.4576 10.7166 27.6723 10.1396 27.9343 10.0458C28.2116 9.94699 28.2695 9.73419 28.0728 9.53742C27.876 9.34064 27.6632 9.3986 27.5644 9.67585C27.4706 9.93784 27.103 10.1525 26.7472 10.1525C26.3917 10.1525 25.8533 10.4958 25.5508 10.9153C25.2484 11.3347 24.7336 11.678 24.4068 11.678C24.08 11.678 23.5651 12.0212 23.2627 12.4407C22.9603 12.8602 22.4455 13.2034 22.1186 13.2034C21.7918 13.2034 21.277 13.5466 20.9746 13.9661C20.6722 14.3856 20.1573 14.7288 19.8305 14.7288C19.5037 14.7288 18.9889 15.072 18.6864 15.4915C18.384 15.911 17.8692 16.2542 17.5424 16.2542C17.2156 16.2542 16.7007 16.5975 16.3983 17.0169C16.0959 17.4364 15.5811 17.7797 15.2542 17.7797C14.9274 17.7797 14.4126 18.1229 14.1102 18.5424C13.8078 18.9619 13.2929 19.3051 12.9661 19.3051C12.6393 19.3051 12.1245 19.6483 11.822 20.0678C11.5196 20.4873 11.0048 20.8305 10.678 20.8305C10.3511 20.8305 9.83631 21.1737 9.5339 21.5932C8.81123 22.5958 7.62712 22.5958 7.62712 21.5932C7.62712 21.1737 7.45551 20.8305 7.24576 20.8305C7.03602 20.8305 6.86441 20.3157 6.86441 19.6864C6.86441 19.0572 6.6928 18.5424 6.48305 18.5424C6.27331 18.5424 6.1017 18.0275 6.1017 17.3983C6.1017 16.7691 5.93009 16.2542 5.72034 16.2542C5.51059 16.2542 5.33898 15.911 5.33898 15.4915C5.33898 15.072 5.16737 14.7288 4.95763 14.7288C4.74788 14.7288 4.57627 14.214 4.57627 13.5847C4.57627 12.9555 4.40466 12.4407 4.19492 12.4407C3.98517 12.4407 3.81356 11.9258 3.81356 11.2966C3.81356 10.6674 3.64195 10.1525 3.4322 10.1525C3.22246 10.1525 3.05085 9.63771 3.05085 9.00847C3.05085 8.37924 2.87924 7.86441 2.66949 7.86441C2.45975 7.86441 2.28814 7.34958 2.28814 6.72034C2.28814 6.0911 2.11653 5.57627 1.90678 5.57627C1.69704 5.57627 1.52542 5.06144 1.52542 4.4322C1.52542 3.80297 1.35381 3.28814 1.14407 3.28814C0.934323 3.28814 0.762713 2.77331 0.762713 2.14407C0.762713 1.25436 0.593391 1 1.07288e-06 1C-0.593389 1 -0.762711 1.25436 -0.762711 2.14407Z" stroke="#FB8F2C" stroke-width="2"/>
</svg>
